<svg width="40" height="40" viewBox="0 0 40 40" fill="none" xmlns="http://www.w3.org/2000/svg">
<circle opacity="0.1" cx="20" cy="20" r="19.5" stroke="#080415"/>
<path d="M22.4465 15.6615H26.439V16.6258H22.4465V15.6615ZM18.446 19.477C19.3286 19.0566 19.7909 18.417 19.7909 17.4288C19.7909 15.4742 18.33 15 16.6429 15H12V24.8107H16.773C18.5621 24.8107 20.2411 23.954 20.2411 21.9615C20.2411 20.7302 19.6568 19.8197 18.446 19.477ZM14.1654 16.6736H16.1966C16.9791 16.6736 17.6816 16.8908 17.6816 17.7954C17.6816 18.6282 17.1352 18.9629 16.3607 18.9629H14.1654V16.6736ZM16.4768 23.145H14.1634V20.4433H16.5228C17.4754 20.4433 18.0778 20.8398 18.0778 21.844C18.0778 22.8322 17.3593 23.145 16.4768 23.145ZM28 21.3618C28 19.2598 26.7652 17.5085 24.5318 17.5085C22.3605 17.5085 20.8836 19.1363 20.8836 21.2702C20.8836 23.4818 22.2824 25 24.5318 25C26.2349 25 27.3376 24.2369 27.8679 22.6091H26.1408C25.9527 23.2168 25.1882 23.5356 24.5939 23.5356C23.4452 23.5356 22.8448 22.8661 22.8448 21.7284H27.986C27.992 21.6109 28 21.4873 28 21.3618ZM22.8448 20.4971C22.9068 19.5627 23.5332 18.9789 24.4698 18.9789C25.4544 18.9789 25.9467 19.5547 26.0328 20.4971H22.8448Z" fill="#080415"/>
</svg>
