<svg width="40" height="40" viewBox="0 0 40 40" fill="none" xmlns="http://www.w3.org/2000/svg">
<circle opacity="0.1" cx="20" cy="20" r="19.5" stroke="#080415"/>
<path d="M26.7355 16.0959C26.0402 14.9035 25.0967 13.9593 23.9036 13.2648C22.7113 12.5702 21.4101 12.2225 19.9999 12.2225C18.5898 12.2225 17.2886 12.5702 16.0955 13.2648C14.9032 13.9593 13.9589 14.9035 13.2644 16.0959C12.5698 17.2882 12.2222 18.5902 12.2222 20.0003C12.2222 21.4104 12.5691 22.7124 13.2644 23.9048C13.9597 25.0979 14.9032 26.0413 16.0963 26.7359C17.2886 27.4304 18.5898 27.7781 19.9999 27.7781C21.4101 27.7781 22.7113 27.4304 23.9044 26.7359C25.0967 26.0413 26.0409 25.0979 26.7363 23.9048C27.4308 22.7124 27.7777 21.4104 27.7777 20.0003C27.7777 18.5902 27.4308 17.2882 26.7355 16.0959ZM19.9999 13.5136C21.5555 13.5136 22.9337 14.0114 24.1377 15.0062C23.4222 15.9193 22.3597 16.6706 20.9488 17.2618C20.1695 15.8516 19.3248 14.6741 18.4125 13.7306C18.9429 13.586 19.4703 13.5136 19.9999 13.5136ZM14.9522 15.9559C15.5386 15.2193 16.2402 14.6445 17.0607 14.2292C18.0034 15.1633 18.8691 16.3292 19.6585 17.7292C18.1029 18.1959 16.4587 18.4292 14.7266 18.4292C14.2809 18.4292 13.9442 18.4191 13.7155 18.3981C13.9543 17.506 14.3665 16.6924 14.9522 15.9559ZM13.5133 20.0003C13.5133 19.9583 13.5156 19.907 13.5211 19.8448C13.5265 19.7825 13.5288 19.7312 13.5288 19.6892C13.7264 19.7001 14.0274 19.7048 14.4318 19.7048C16.5054 19.7048 18.4343 19.4193 20.2177 18.8492C20.3632 19.1393 20.5141 19.466 20.6688 19.8292C19.6422 20.0571 18.5891 20.6116 17.5103 21.4936C16.4315 22.3756 15.6444 23.3035 15.1466 24.2781C14.0577 23.0438 13.5133 21.6181 13.5133 20.0003ZM19.9999 26.487C18.5268 26.487 17.2046 26.0304 16.0325 25.1189C16.4999 24.1956 17.2178 23.3129 18.1877 22.4736C19.1568 21.6336 20.1189 21.1102 21.0733 20.9025C21.6737 22.5615 22.0789 24.2773 22.2866 26.0514C21.5291 26.3415 20.7668 26.487 19.9999 26.487ZM25.5066 23.407C24.9886 24.2361 24.3197 24.9159 23.4999 25.4455C23.3133 23.8278 22.9555 22.2512 22.4274 20.7159C23.1523 20.6645 23.8002 20.6381 24.3718 20.6381C24.9933 20.6381 25.6832 20.6645 26.4399 20.7159C26.3357 21.6803 26.0246 22.5771 25.5066 23.407ZM24.5422 19.5181C23.6399 19.5181 22.8054 19.5546 22.0377 19.627C21.8402 19.1191 21.6644 18.6991 21.5088 18.367C23.1157 17.6623 24.2559 16.8068 24.9303 15.8003C25.8636 16.9001 26.3723 18.1546 26.4547 19.5648C25.8232 19.5336 25.1854 19.5181 24.5422 19.5181Z" fill="#080415"/>
</svg>
